<svg viewBox="0 0 24 18" xmlns="http://www.w3.org/2000/svg"><path d="m903.3 2871.55c.3.2 1.218.81 2.745 1.82s2.7 1.79 3.509 2.33q.134.09.569.39c.29.2.531.37.723.49s.424.26.7.41a3.974 3.974 0 0 0 .77.35 2.105 2.105 0 0 0 .67.11h.026a2.105 2.105 0 0 0 .67-.11 3.974 3.974 0 0 0 .77-.35c.272-.15.5-.29.7-.41s.433-.29.723-.49.48-.33.569-.39c.821-.54 2.911-1.93 6.268-4.15a6.369 6.369 0 0 0 1.634-1.57 3.3 3.3 0 0 0 .656-1.93 1.916 1.916 0 0 0 -.636-1.45 2.125 2.125 0 0 0 -1.507-.6h-19.716a1.958 1.958 0 0 0 -1.587.66 2.526 2.526 0 0 0 -.556 1.67 2.9 2.9 0 0 0 .737 1.74 6.5 6.5 0 0 0 1.563 1.48zm20.357 1.37q-4.394 2.835-6.67 4.41c-.509.35-.922.63-1.239.83a7.86 7.86 0 0 1 -1.265.62 3.984 3.984 0 0 1 -1.473.31h-.027a3.985 3.985 0 0 1 -1.474-.31 7.9 7.9 0 0 1 -1.265-.62c-.317-.2-.73-.48-1.239-.83q-1.808-1.275-6.656-4.41a7.2 7.2 0 0 1 -1.349-1.12v10.15a1.927 1.927 0 0 0 .629 1.45 2.118 2.118 0 0 0 1.514.6h19.714a2.114 2.114 0 0 0 1.513-.6 1.924 1.924 0 0 0 .63-1.45v-10.15a7.608 7.608 0 0 1 -1.339 1.12z" fill="#fff" fill-rule="evenodd" transform="translate(-901 -2866)"/></svg>